<?xml version="1.0" encoding="UTF-8"?>
<!DOCTYPE svg PUBLIC "-//W3C//DTD SVG 1.1//EN" "http://www.w3.org/Graphics/SVG/1.1/DTD/svg11.dtd">
<!-- Creator: CorelDRAW (Evaluation Version) -->
<svg xmlns="http://www.w3.org/2000/svg" xml:space="preserve" width="1.79221in" height="1.4143in" version="1.1" style="shape-rendering:geometricPrecision; text-rendering:geometricPrecision; image-rendering:optimizeQuality; fill-rule:evenodd; clip-rule:evenodd"
viewBox="0 0 1326.59 1046.86"
 xmlns:xlink="http://www.w3.org/1999/xlink"
 xmlns:xodm="http://www.corel.com/coreldraw/odm/2003">
 <defs>
  <style type="text/css">
   <![CDATA[
    .fil0 {fill:#007AFF}
    .fil1 {fill:#86868B;fill-rule:nonzero}
   ]]>
  </style>
 </defs>
 <g id="Layer_x0020_1">
  <metadata id="CorelCorpID_0Corel-Layer"/>
  <path class="fil0" d="M61.26 838.06l1192.94 -1.11 -583.77 -836.95 -85.13 115.42 70.74 0 0 71.08 -123.16 0c-33.78,45.81 -60.28,81.77 -81.77,110.99l204.93 0 0 71.08 -257.08 0c-30.94,42.35 -48.71,67.16 -79.15,109.74l336.24 0 0 71.08 -387.09 0c-20.39,28.47 -45.33,63.23 -76.98,107.25l464.08 0 0 71.08 -515.23 0c-23.52,32.66 -49.82,69.14 -79.55,110.34z"/>
  <polygon class="fil1" points="0.09,1044.8 0.09,910.08 84.85,910.08 84.85,927.85 20.63,927.85 20.63,968 80.22,968 80.22,985.58 20.63,985.58 20.63,1027.03 85.4,1027.03 85.4,1044.8 "/>
  <path id="_1" class="fil1" d="M180.08 1044.8l-33.31 0 0 -17.95 32.2 0c10.18,0 18.69,-1.85 25.35,-5.74 6.85,-3.89 11.84,-9.44 15.17,-16.84 3.52,-7.4 5.18,-16.47 5.18,-27.02 0,-10.55 -1.66,-19.43 -5.18,-26.65 -3.33,-7.4 -8.33,-12.95 -14.8,-16.65 -6.48,-3.88 -14.8,-5.74 -24.61,-5.74l-34.05 0 0 -18.13 35.34 0c13.32,0 24.61,2.77 34.05,8.14 9.44,5.36 16.84,12.95 21.84,23.13 5,9.99 7.59,22.02 7.59,35.9 0,14.06 -2.59,26.09 -7.77,36.27 -5,9.99 -12.4,17.76 -22.02,23.13 -9.62,5.36 -21.28,8.14 -34.97,8.14zm-23.13 -134.72l0 134.72 -20.54 0 0 -134.72 20.54 0z"/>
  <path id="_2" class="fil1" d="M348.15 1046.84c-10.73,0 -20.17,-2.04 -28.13,-6.11 -8.14,-4.26 -14.43,-9.99 -18.88,-17.21 -4.25,-7.22 -6.48,-15.54 -6.48,-24.98l0 -88.45 20.54 0 0 86.79c0,6.11 1.3,11.47 4.07,16.1 2.78,4.62 6.48,8.33 11.29,11.1 4.99,2.77 10.73,4.07 17.58,4.07 6.85,0 12.58,-1.3 17.58,-4.07 4.99,-2.78 8.7,-6.48 11.29,-11.1 2.78,-4.63 4.07,-9.99 4.07,-16.1l0 -86.79 20.73 0 0 88.45c0,9.44 -2.22,17.76 -6.66,24.98 -4.44,7.22 -10.73,12.95 -18.69,17.21 -7.96,4.07 -17.39,6.11 -28.31,6.11z"/>
  <path id="_3" class="fil1" d="M442.39 1044.8l47.93 -134.72 25.17 0 48.85 134.72 -22.21 0 -26.28 -74.95c-2.03,-6.11 -4.44,-13.14 -6.85,-21.47 -2.41,-8.33 -5.18,-18.13 -8.33,-29.61l4.26 0c-3.15,11.66 -5.92,21.65 -8.33,29.98 -2.4,8.33 -4.62,15.36 -6.48,21.1l-25.35 74.95 -22.39 0zm25.91 -35.53l0 -17.21 70.13 0 0 17.21 -70.13 0z"/>
  <path id="_4" class="fil1" d="M608.65 1044.8l0 -134.72 48.11 0c10.36,0 19.06,1.85 25.91,5.55 6.85,3.51 12.03,8.51 15.54,14.99 3.51,6.29 5.18,13.51 5.18,21.84 0,8.33 -1.67,15.54 -5.18,21.84 -3.52,6.11 -8.7,11.1 -15.54,14.62 -6.85,3.33 -15.54,4.99 -26.09,4.99l-36.27 0 0 -17.58 34.42 0c6.48,0 11.84,-0.93 15.91,-2.78 4.07,-2.03 7.03,-4.62 9.07,-8.14 1.85,-3.51 2.77,-7.96 2.77,-12.95 0,-4.99 -0.92,-9.44 -2.77,-13.14 -2.04,-3.7 -5,-6.48 -9.07,-8.51 -4.07,-2.04 -9.44,-2.96 -16.1,-2.96l-25.35 0 0 116.95 -20.54 0zm76.42 0l-32.57 -60.88 22.76 0 33.31 60.88 -23.5 0z"/>
  <path id="_5" class="fil1" d="M796.92 1044.8l-33.31 0 0 -17.95 32.2 0c10.18,0 18.69,-1.85 25.35,-5.74 6.85,-3.89 11.84,-9.44 15.17,-16.84 3.52,-7.4 5.18,-16.47 5.18,-27.02 0,-10.55 -1.66,-19.43 -5.18,-26.65 -3.33,-7.4 -8.33,-12.95 -14.8,-16.65 -6.48,-3.88 -14.8,-5.74 -24.61,-5.74l-34.05 0 0 -18.13 35.34 0c13.32,0 24.61,2.77 34.05,8.14 9.44,5.36 16.84,12.95 21.84,23.13 5,9.99 7.59,22.02 7.59,35.9 0,14.06 -2.59,26.09 -7.77,36.27 -5,9.99 -12.4,17.76 -22.02,23.13 -9.62,5.36 -21.28,8.14 -34.97,8.14zm-23.13 -134.72l0 134.72 -20.54 0 0 -134.72 20.54 0z"/>
  <polygon id="_6" class="fil1" points="960.84,1044.8 960.84,910.08 981.37,910.08 981.37,1027.03 1042.26,1027.03 1042.26,1044.8 "/>
  <polygon id="_7" class="fil1" points="1065.87,927.85 1065.87,910.08 1170.43,910.08 1170.43,927.85 1128.6,927.85 1128.6,1044.8 1107.88,1044.8 1107.88,927.85 "/>
  <path id="_8" class="fil1" d="M1261.89 1044.8l-33.31 0 0 -17.95 32.2 0c10.18,0 18.69,-1.85 25.35,-5.74 6.85,-3.89 11.84,-9.44 15.17,-16.84 3.52,-7.4 5.18,-16.47 5.18,-27.02 0,-10.55 -1.66,-19.43 -5.18,-26.65 -3.33,-7.4 -8.33,-12.95 -14.8,-16.65 -6.48,-3.88 -14.8,-5.74 -24.61,-5.74l-34.05 0 0 -18.13 35.34 0c13.32,0 24.61,2.77 34.05,8.14 9.44,5.36 16.84,12.95 21.84,23.13 5,9.99 7.59,22.02 7.59,35.9 0,14.06 -2.59,26.09 -7.77,36.27 -5,9.99 -12.4,17.76 -22.02,23.13 -9.62,5.36 -21.28,8.14 -34.97,8.14zm-23.13 -134.72l0 134.72 -20.54 0 0 -134.72 20.54 0z"/>
 </g>
</svg>
