<?xml version="1.0" encoding="UTF-8"?>
<!DOCTYPE svg PUBLIC "-//W3C//DTD SVG 1.1//EN" "http://www.w3.org/Graphics/SVG/1.1/DTD/svg11.dtd">
<!-- Creator: CorelDRAW (Evaluation Version) -->
<svg xmlns="http://www.w3.org/2000/svg" xml:space="preserve" width="1.79221in" height="1.4143in" version="1.1" style="shape-rendering:geometricPrecision; text-rendering:geometricPrecision; image-rendering:optimizeQuality; fill-rule:evenodd; clip-rule:evenodd"
viewBox="0 0 1636.68 1291.57"
 xmlns:xlink="http://www.w3.org/1999/xlink"
 xmlns:xodm="http://www.corel.com/coreldraw/odm/2003">
 <defs>
  <style type="text/css">
   <![CDATA[
    .fil0 {fill:#007AFF}
    .fil1 {fill:#86868B;fill-rule:nonzero}
   ]]>
  </style>
 </defs>
 <g id="Layer_x0020_1">
  <metadata id="CorelCorpID_0Corel-Layer"/>
  <path class="fil0" d="M75.58 1033.95l1471.79 -1.37 -720.23 -1032.58 -105.03 142.4 87.28 0 0 87.69 -151.95 0c-41.67,56.52 -74.37,100.88 -100.89,136.93l252.83 0 0 87.69 -317.18 0c-38.18,52.25 -60.1,82.85 -97.66,135.39l414.84 0 0 87.69 -477.57 0c-25.16,35.12 -55.93,78.01 -94.98,132.32l572.55 0 0 87.69 -635.67 0c-29.02,40.29 -61.47,85.3 -98.15,136.13z"/>
  <path class="fil1" d="M-0 1289.02l0 -166.09 104.56 0 0 21.88 -79.07 0 0 49.5 73.44 0 0 21.77 -73.44 0 0 51.03 79.79 0 0 21.92 -105.29 0zm222.2 0l-41.09 0 0 -22.22 39.69 0c12.55,0 22.98,-2.36 31.32,-7.12 8.37,-4.72 14.61,-11.61 18.76,-20.66 4.15,-9.09 6.24,-20.2 6.24,-33.33 0,-12.97 -2.09,-23.93 -6.24,-32.95 -4.15,-9.02 -10.24,-15.87 -18.34,-20.55 -8.1,-4.68 -18.22,-7.04 -30.33,-7.04l-41.97 0 0 -22.22 43.57 0c16.36,0 30.36,3.31 41.97,9.93 11.68,6.58 20.62,16.1 26.86,28.54 6.24,12.37 9.36,27.13 9.36,44.29 0,17.32 -3.12,32.19 -9.4,44.64 -6.24,12.44 -15.33,22.03 -27.24,28.73 -11.91,6.66 -26.29,9.97 -43.15,9.97zm-28.54 -166.09l0 166.09 -25.49 0 0 -166.09 25.49 0zm235.94 168.64c-13.28,0 -24.92,-2.55 -34.89,-7.61 -9.93,-5.13 -17.62,-12.17 -23.06,-21.12 -5.48,-9.02 -8.22,-19.29 -8.22,-30.9l0 -109.01 25.49 0 0 106.96c0,7.42 1.64,14.08 4.94,19.9 3.31,5.78 7.99,10.35 14.04,13.7 6.13,3.31 13.35,4.94 21.69,4.94 8.37,0 15.6,-1.64 21.65,-4.94 6.05,-3.35 10.69,-7.92 13.96,-13.7 3.31,-5.82 4.99,-12.48 4.99,-19.9l0 -106.96 25.46 0 0 109.01c0,11.61 -2.74,21.88 -8.26,30.9 -5.44,8.94 -13.13,15.98 -23.02,21.12 -9.85,5.06 -21.46,7.61 -34.78,7.61zm116.16 -2.55l59.17 -166.09 31.12 0 60.2 166.09 -27.47 0 -32.38 -92.43c-2.51,-7.5 -5.29,-16.36 -8.29,-26.52 -2.97,-10.16 -6.43,-22.37 -10.35,-36.6l5.1 0c-3.84,14.39 -7.27,26.71 -10.24,36.99 -2.97,10.31 -5.59,19.03 -7.91,26.14l-31.39 92.43 -27.55 0zm32.08 -43.76l0 -21.23 86.37 0 0 21.23 -86.37 0zm172.97 43.76l0 -166.09 59.47 0c12.82,0 23.51,2.24 32,6.69 8.56,4.42 14.95,10.54 19.18,18.42 4.3,7.84 6.43,16.86 6.43,27.09 0,10.24 -2.13,19.18 -6.43,26.86 -4.26,7.72 -10.65,13.7 -19.21,17.96 -8.56,4.22 -19.26,6.36 -32.12,6.36l-44.75 0 0 -21.73 42.31 0c8.1,0 14.69,-1.18 19.71,-3.54 5.06,-2.32 8.75,-5.71 11.15,-10.08 2.4,-4.42 3.58,-9.7 3.58,-15.83 0,-6.28 -1.18,-11.68 -3.58,-16.21 -2.4,-4.53 -6.13,-8.07 -11.19,-10.54 -5.06,-2.47 -11.72,-3.73 -19.9,-3.73l-31.16 0 0 144.36 -25.49 0zm94.44 0l-40.26 -75.07 28.2 0 40.98 75.07 -28.92 0zm137.99 0l-41.09 0 0 -22.22 39.69 0c12.55,0 22.98,-2.36 31.32,-7.12 8.37,-4.72 14.61,-11.61 18.76,-20.66 4.15,-9.09 6.24,-20.2 6.24,-33.33 0,-12.97 -2.09,-23.93 -6.24,-32.95 -4.15,-9.02 -10.24,-15.87 -18.34,-20.55 -8.1,-4.68 -18.22,-7.04 -30.33,-7.04l-41.97 0 0 -22.22 43.57 0c16.36,0 30.36,3.31 41.97,9.93 11.68,6.58 20.62,16.1 26.86,28.54 6.24,12.37 9.36,27.13 9.36,44.29 0,17.32 -3.12,32.19 -9.4,44.64 -6.24,12.44 -15.33,22.03 -27.24,28.73 -11.91,6.66 -26.29,9.97 -43.15,9.97zm-28.54 -166.09l0 166.09 -25.49 0 0 -166.09 25.49 0zm230.61 166.09l0 -166.09 25.49 0 0 144.17 75.11 0 0 21.92 -100.61 0zm129.74 -144.21l0 -21.88 128.88 0 0 21.88 -51.63 0 0 144.21 -25.46 0 0 -144.21 -51.79 0zm241.83 144.21l-41.09 0 0 -22.22 39.69 0c12.55,0 22.98,-2.36 31.32,-7.12 8.37,-4.72 14.61,-11.61 18.76,-20.66 4.15,-9.09 6.24,-20.2 6.24,-33.33 0,-12.97 -2.09,-23.93 -6.24,-32.95 -4.15,-9.02 -10.24,-15.87 -18.34,-20.55 -8.1,-4.68 -18.22,-7.04 -30.33,-7.04l-41.97 0 0 -22.22 43.57 0c16.36,0 30.36,3.31 41.97,9.93 11.68,6.58 20.62,16.1 26.86,28.54 6.24,12.37 9.36,27.13 9.36,44.29 0,17.32 -3.12,32.19 -9.4,44.64 -6.24,12.44 -15.33,22.03 -27.24,28.73 -11.91,6.66 -26.29,9.97 -43.15,9.97zm-28.54 -166.09l0 166.09 -25.49 0 0 -166.09 25.49 0z"/>
 </g>
</svg>
